<svg xmlns="http://www.w3.org/2000/svg" viewBox="0 0 24 24" width="24" height="24">
  <path fill="#FFFFFF" d="M12 .5a11.5 11.5 0 0 0-3.64 22.41c.58.11.79-.25.79-.56v-2c-3.2.7-3.88-1.54-3.88-1.54-.53-1.35-1.3-1.71-1.3-1.71-1.06-.73.08-.72.08-.72 1.17.08 1.78 1.2 1.78 1.2 1.04 1.78 2.72 1.26 3.38.96.11-.76.41-1.26.74-1.55-2.55-.29-5.23-1.28-5.23-5.7 0-1.26.45-2.29 1.2-3.1-.12-.29-.52-1.46.11-3.04 0 0 .98-.31 3.2 1.18a11.1 11.1 0 0 1 5.83 0c2.22-1.49 3.2-1.18 3.2-1.18.63 1.58.23 2.75.11 3.04.75.81 1.2 1.84 1.2 3.1 0 4.43-2.69 5.4-5.25 5.68.42.36.79 1.07.79 2.16v3.2c0 .31.21.68.8.56A11.5 11.5 0 0 0 12 .5Z"/>
</svg>

